<?xml version="1.0" encoding="UTF-8"?>
<svg width="164px" height="57px" viewBox="0 0 164 57" version="1.1" xmlns="http://www.w3.org/2000/svg" xmlns:xlink="http://www.w3.org/1999/xlink">
    <!-- Generator: Sketch 54.1 (76490) - https://sketchapp.com -->
    <title>Logo</title>
    <desc>Created with Sketch.</desc>
    <g id="Logo" stroke="none" stroke-width="1" fill="none" fill-rule="evenodd">
        <g id="v3" transform="translate(-218.000000, -168.000000)">
            <g id="Logo" transform="translate(190.000000, 157.000000)">
                <rect id="Box" x="0" y="0" width="220" height="90"></rect>
                <path d="M51.4375,49.3984375 L39.2265625,49.3984375 L37.5390625,57.90625 L51.953125,57.90625 L50.734375,64 L28.46875,64 L35.2890625,29.875 L57.6015625,29.875 L56.3828125,35.96875 L41.921875,35.96875 L40.4453125,43.3046875 L52.65625,43.3046875 L51.4375,49.3984375 Z M54.8359375,64 L58.796875,44.125 L55.46875,44.125 L56.546875,38.640625 L59.8984375,38.640625 L60.4375,36.015625 C61.0625031,32.8593592 62.320303,30.558601 64.2109375,29.1132812 C66.101572,27.6679615 68.6406091,26.9453125 71.828125,26.9453125 C72.3750027,26.9453125 72.9414033,26.9882808 73.5273438,27.0742188 C74.1132842,27.1601567 74.7499966,27.2812492 75.4375,27.4375 L73.703125,33.2734375 C73.3281231,33.1953121 72.992189,33.1367189 72.6953125,33.0976562 C72.398436,33.0585936 72.0234398,33.0390625 71.5703125,33.0390625 C70.7421834,33.0390625 70.031253,33.2968724 69.4375,33.8125 C68.843747,34.3281276 68.4609384,35.0624952 68.2890625,36.015625 L67.75,38.640625 L72.203125,38.640625 L71.125,44.125 L66.6484375,44.125 L62.6875,64 L54.8359375,64 Z M80.546875,64.46875 C77.0937327,64.46875 74.4961025,63.3086054 72.7539062,60.9882812 C71.01171,58.6679571 70.4296846,55.7265803 71.0078125,52.1640625 L71.1484375,51.2734375 C71.7890657,47.179667 73.2148327,43.9687616 75.4257812,41.640625 C77.6367298,39.3124884 80.5624818,38.1562499 84.203125,38.171875 C87.3750159,38.171875 89.7265548,39.1953023 91.2578125,41.2421875 C92.7890702,43.2890727 93.2734403,46.0937322 92.7109375,49.65625 L92.0546875,53.8046875 L78.6484375,53.8046875 C78.6328124,55.2421947 78.9414031,56.3632772 79.5742188,57.1679688 C80.2070344,57.9726603 81.2109306,58.375 82.5859375,58.375 C83.9453193,58.375 85.0742143,58.2578137 85.9726562,58.0234375 C86.8710982,57.7890613 87.9843684,57.3906278 89.3125,56.828125 L89.7578125,62.125 C88.648432,62.8125034 87.2890705,63.3749978 85.6796875,63.8125 C84.0703045,64.2500022 82.3593841,64.46875 80.546875,64.46875 Z M83.2421875,44.265625 C82.2734327,44.265625 81.4921905,44.6679647 80.8984375,45.4726562 C80.3046845,46.2773478 79.8203144,47.4062427 79.4453125,48.859375 L85.1875,48.859375 L85.3046875,48.25 C85.5078135,46.8749931 85.4570328,45.8671907 85.1523438,45.2265625 C84.8476547,44.5859343 84.2109423,44.265625 83.2421875,44.265625 Z M108.859375,32.3359375 L107.59375,38.640625 L111.34375,38.640625 L110.265625,44.125 L106.492188,44.125 L104.195312,55.7265625 C103.992186,56.7109424 104.015624,57.3828107 104.265625,57.7421875 C104.515626,58.1015643 104.937497,58.28125 105.53125,58.28125 C105.875002,58.28125 106.156249,58.2656252 106.375,58.234375 C106.593751,58.2031248 106.882811,58.1406255 107.242188,58.046875 L106.632812,63.7890625 C105.882809,64.0234387 105.171878,64.195312 104.5,64.3046875 C103.828122,64.414063 103.093754,64.46875 102.296875,64.46875 C99.906238,64.46875 98.1679742,63.7734445 97.0820312,62.3828125 C95.9960883,60.9921805 95.7578095,58.7890776 96.3671875,55.7734375 L98.6875,44.125 L95.6875,44.125 L96.765625,38.640625 L99.7890625,38.640625 L101.054688,32.3359375 L108.859375,32.3359375 Z M124.5625,32.3359375 L123.296875,38.640625 L127.046875,38.640625 L125.96875,44.125 L122.195312,44.125 L119.898438,55.7265625 C119.695311,56.7109424 119.718749,57.3828107 119.96875,57.7421875 C120.218751,58.1015643 120.640622,58.28125 121.234375,58.28125 C121.578127,58.28125 121.859374,58.2656252 122.078125,58.234375 C122.296876,58.2031248 122.585936,58.1406255 122.945312,58.046875 L122.335938,63.7890625 C121.585934,64.0234387 120.875003,64.195312 120.203125,64.3046875 C119.531247,64.414063 118.796879,64.46875 118,64.46875 C115.609363,64.46875 113.871099,63.7734445 112.785156,62.3828125 C111.699213,60.9921805 111.460934,58.7890776 112.070312,55.7734375 L114.390625,44.125 L111.390625,44.125 L112.46875,38.640625 L115.492188,38.640625 L116.757812,32.3359375 L124.5625,32.3359375 Z M132.835938,64 L124.984375,64 L130.046875,38.640625 L137.898438,38.640625 L132.835938,64 Z M139.09375,32.7578125 L131.242188,32.7578125 L132.296875,27.4375 L140.148438,27.4375 L139.09375,32.7578125 Z M167.907812,51.0859375 C168.548441,47.0390423 170.028895,43.8750114 172.349219,41.59375 C174.669543,39.3124886 177.704669,38.171875 181.454687,38.171875 C185.017205,38.171875 187.634367,39.3632693 189.30625,41.7460938 C190.978133,44.1289182 191.509378,47.2421683 190.9,51.0859375 L190.829687,51.578125 C190.173434,55.6250202 188.689074,58.7851449 186.376562,61.0585938 C184.064051,63.3320426 181.040644,64.46875 177.30625,64.46875 C173.712482,64.46875 171.079696,63.2851681 169.407812,60.9179688 C167.735929,58.5507694 167.212497,55.4375193 167.8375,51.578125 L167.907812,51.0859375 Z M175.665625,51.578125 C175.290623,53.8281363 175.271092,55.5234318 175.607031,56.6640625 C175.94297,57.8046932 176.82968,58.375 178.267188,58.375 C179.579694,58.375 180.610934,57.7734435 181.360938,56.5703125 C182.110941,55.3671815 182.657811,53.7031356 183.001563,51.578125 L183.071875,51.0859375 C183.415627,48.8828015 183.419533,47.1953184 183.083594,46.0234375 C182.747655,44.8515566 181.884382,44.265625 180.49375,44.265625 C179.165618,44.265625 178.12266,44.8828063 177.364844,46.1171875 C176.607027,47.3515687 176.064064,49.0078021 175.735938,51.0859375 L175.665625,51.578125 Z" id="Efettio" fill="#FFFFFF" fill-rule="nonzero"></path>
                <path d="M144,43.4584208 C149.648065,53.4052762 151.894719,60.1305171 150.739963,63.6341435 C149.798073,66.4919158 156.65518,52.094142 165.378049,38.3536397 C172.696526,26.8253753 181.685956,15.854805 185,15" id="Check" stroke="#FFFFFF" stroke-width="8.00000012" stroke-linecap="round"></path>
            </g>
        </g>
    </g>
</svg>